<?xml version="1.0" encoding="utf-8"?>
<!-- Generator: Adobe Illustrator 21.0.0, SVG Export Plug-In . SVG Version: 6.00 Build 0)  -->
<svg version="1.1" id="Layer_1" xmlns="http://www.w3.org/2000/svg" xmlns:xlink="http://www.w3.org/1999/xlink" x="0px" y="0px"
	 viewBox="0 0 40 40" style="enable-background:new 0 0 40 40;" xml:space="preserve">
<style type="text/css">
	.st0{fill:#FFFFFF;}
</style>
<g>
	<path class="st0" d="M21.6,4.2c0.8,0.1,1.7,0.2,2.5,0.5c1.6,0.4,3.1,1.2,4.4,2.3c2.5,2.2,3.7,5,4.1,8.2c0.2,2.4-0.1,4.7-1.1,6.8
		c-0.3,0.7-0.8,1.4-1.2,2.1c-3.1,4.4-6.1,8.9-9.2,13.3c0,0.1-0.1,0.1-0.2,0.2c-0.1-0.1-0.1-0.1-0.2-0.2c-3.2-4.6-6.4-9.3-9.6-13.9
		c-1-1.5-1.6-3.1-1.8-4.9c-0.3-2.1-0.2-4.2,0.5-6.2c1-3.2,2.9-5.6,5.9-7.1c1.4-0.7,2.8-1.1,4.3-1.2c0.1,0,0.1,0,0.2,0
		C20.8,4.2,21.2,4.2,21.6,4.2z M25.4,15.8c0-2.4-1.9-4.3-4.3-4.3c-2.3,0-4.3,1.9-4.3,4.3c0,2.3,1.9,4.3,4.3,4.3
		C23.4,20.1,25.4,18.2,25.4,15.8z"/>
</g>
</svg>
