<svg width="88" height="62" viewBox="0 0 88 62" fill="none" xmlns="http://www.w3.org/2000/svg">
<path d="M74.1884 49.5271C69.2738 53.7895 62.4342 57.4862 53.5514 60.6252C53.5488 60.3592 53.5473 60.0657 53.5473 59.7572L53.5473 58.2146L53.8027 58.1229C57.0335 56.9629 60.0004 55.4764 62.6625 53.6791L62.1029 52.8503L62.6625 53.6791C65.4867 51.7721 68.4399 48.9471 70.4578 46.2213L70.4578 46.2213C74.1992 41.1673 76.0973 35.983 76.0247 30.7484C76.016 30.1229 76.0077 29.715 75.9763 29.4033C75.9402 29.0446 75.8736 28.809 75.7806 28.5301L75.7806 28.5301C75.5412 27.812 75.2124 27.2439 74.6128 26.825C74.4113 26.6842 74.1612 26.5543 73.8512 26.4997C73.543 26.4453 73.2495 26.4781 72.9771 26.5516C72.4821 26.6851 71.913 26.9978 71.2339 27.4052L71.2338 27.4052C69.3492 28.5358 67.5788 29.0493 64.777 29.2203C60.9162 29.4559 57.5575 28.2515 54.6057 25.5523L54.0088 26.205L54.6057 25.5523C52.1749 23.3295 50.7571 20.7857 50.2808 17.882C49.706 14.3785 50.5076 10.9567 52.5817 8.06511C53.2448 7.14065 53.8571 6.45083 54.8128 5.55966L54.185 4.88635L54.8128 5.55965C57.4274 3.12169 60.3178 1.72238 63.7791 1.21101C67.6722 0.635863 71.6894 1.25805 75.0536 2.94266C78.6736 4.75533 82.0567 8.09596 83.8723 11.6433C85.6598 15.1356 86.4718 18.8073 86.4705 23.594C86.4688 29.4154 85.1761 34.498 82.4464 39.4453L83.322 39.9284L82.4464 39.4454C80.3366 43.2692 77.731 46.4546 74.1884 49.5271ZM4.79035 60.6084C4.79204 60.361 4.79527 60.079 4.80013 59.7625L4.8242 58.1933L5.18314 58.0617C7.85909 57.0805 9.95113 56.0936 12.1558 54.7675C16.1777 52.3486 19.3706 49.4325 22.0299 45.7415C24.1448 42.8062 25.6438 39.7598 26.4742 36.6681C26.8734 35.1818 27.1324 33.535 27.2301 32.0802C27.3243 30.6756 27.281 29.2852 26.9633 28.405C26.7094 27.7017 26.2088 26.96 25.4871 26.64L25.1742 27.3457L25.4871 26.64L25.1772 26.5026L24.8329 26.3499L24.4734 26.4623L24.0728 26.5876L24.0727 26.5877C23.7302 26.6948 23.0752 27.0356 22.6023 27.3158C20.889 28.331 19.5039 28.8153 17.5839 29.0753C12.9682 29.7001 9.26915 28.614 6.03159 25.7362C2.85677 22.9141 1.3381 19.6266 1.3381 15.6968C1.3381 13.4178 1.79835 11.5653 2.84753 9.60079C3.66127 8.07705 4.6609 6.8135 6.17251 5.42701C7.52054 4.19057 8.85531 3.28493 10.3303 2.59452L9.90631 1.68883L10.3303 2.59451C15.0236 0.397524 21.1712 0.472506 26.0077 2.80935L26.4212 1.95348L26.0077 2.80936C26.8795 3.23057 28.1561 4.00248 29.0392 4.64559C29.8773 5.25604 31.6896 6.91188 32.3434 7.66299C35.5332 11.3278 37.208 15.5775 37.6317 21.2566C37.7132 22.3486 37.7075 25.1733 37.6231 26.1745C37.0948 32.4416 35.1127 37.834 31.4649 42.9304C28.6702 46.835 25.3565 49.9671 20.8009 52.9863C16.7964 55.6403 11.5788 58.1754 5.92104 60.2028L6.25835 61.1441L5.92103 60.2028C5.53249 60.342 5.13004 60.4864 4.79035 60.6084Z" stroke="#CD8F63" stroke-width="2"/>
</svg>
