<svg width="60" height="47" viewBox="0 0 60 47" fill="none" xmlns="http://www.w3.org/2000/svg">
<path fill-rule="evenodd" clip-rule="evenodd" d="M23.7146 0.101945C17.2641 2.54783 12.2747 5.46467 8.69497 8.88257C6.19847 11.2662 4.35125 13.7496 2.85668 16.7317C0.9192 20.5974 0.00114553 24.5767 1.18161e-06 29.114C-0.000952444 32.8395 0.575276 35.7456 1.86472 38.519C3.18277 41.3539 5.6201 44.0018 8.24199 45.4471C10.6902 46.7967 13.5999 47.2897 16.4147 46.8319C18.939 46.4213 21.0574 45.2908 22.9579 43.3399C23.6452 42.6343 24.098 42.0742 24.5842 41.328C26.1186 38.9731 26.714 36.1761 26.2886 33.3216C25.9331 30.936 24.872 28.8585 23.0956 27.0703C20.9296 24.8899 18.4354 23.901 15.585 24.0925C13.5698 24.2278 12.2381 24.6427 10.8264 25.575C9.86988 26.2067 9.57445 26.2944 9.24835 26.0436C8.99912 25.8519 8.84058 25.587 8.70298 25.1326C8.59345 24.7709 8.58244 24.6502 8.57018 23.6802C8.52269 19.9135 9.76064 16.1417 12.2685 12.4123C13.6113 10.4155 15.5879 8.33381 17.4683 6.93607C19.2505 5.61133 21.2417 4.51217 23.4166 3.65257L24.0483 3.40286V1.7002C24.0483 0.763714 24.0323 -0.00139261 24.0126 1.90325e-06C23.9929 0.00139642 23.8588 0.0472709 23.7146 0.101945ZM57.2345 0.130317C57.064 0.198215 56.474 0.431532 55.9233 0.648787C51.9869 2.20155 48.3419 4.14854 45.5287 6.20107C42.3308 8.53433 39.985 10.9707 38.0059 14.0148C35.4216 17.9896 34.0132 22.2079 33.6391 27.0943C33.5777 27.8962 33.574 30.0778 33.6326 30.9425C33.9338 35.3852 35.1331 38.769 37.4415 41.6887C37.9268 42.3024 39.2133 43.596 39.8308 44.0911C40.4687 44.6025 41.383 45.2119 42.0242 45.5529C45.5346 47.4201 49.9852 47.4853 53.4113 45.7198C54.4965 45.1605 55.4733 44.4287 56.4478 43.4446C57.5373 42.3446 58.2772 41.3205 58.8794 40.0791C59.6562 38.4778 60 36.9505 60 35.1008C60 31.8898 58.8593 29.1963 56.5369 26.9237C54.1472 24.5853 51.3955 23.7066 48.032 24.2078C46.6164 24.4188 45.5749 24.8206 44.3176 25.6407C43.9925 25.8528 43.6023 26.0691 43.4506 26.1214L43.1747 26.2163L42.9613 26.1122C42.7029 25.986 42.4545 25.6401 42.3134 25.2098C41.9813 24.1971 42.1426 21.5514 42.6675 19.3999C43.2148 17.1567 44.2068 14.9297 45.6216 12.7681C47.3964 10.0564 49.5248 7.91497 52.2171 6.1323C53.6939 5.15451 55.0944 4.42638 56.9007 3.69724L57.5921 3.41815L57.6159 1.7078C57.6316 0.582043 57.6235 -0.000959892 57.5921 0.00211766C57.5659 0.00471434 57.4049 0.0623703 57.2345 0.130317Z" fill="#CD8F63"/>
</svg>
