<svg width="13" height="13" viewBox="0 0 13 13" fill="none" xmlns="http://www.w3.org/2000/svg">
<g clip-path="url(#clip0_57_130)">
<path d="M10.565 3.16565L9.30488 1.61613C9.21599 1.50625 9.11033 1.41906 8.99398 1.35958C8.87763 1.30009 8.75287 1.26949 8.62688 1.26953C8.37012 1.26953 8.12874 1.39332 7.94771 1.61613L6.59172 3.28507C6.50244 3.39447 6.4316 3.52451 6.38327 3.66772C6.33494 3.81092 6.31008 3.96447 6.31011 4.11953C6.31011 4.43555 6.41069 4.73264 6.59172 4.95545L7.58327 6.17584C7.35117 6.80549 7.02848 7.3783 6.63077 7.86662C6.23405 8.35731 5.7687 8.75592 5.25703 9.04332L4.26548 7.82293C4.17659 7.71304 4.07093 7.62585 3.95458 7.56637C3.83823 7.50689 3.71348 7.47629 3.58749 7.47633C3.33073 7.47633 3.08935 7.60011 2.90831 7.82293L1.55114 9.49041C1.46175 9.60001 1.39085 9.7303 1.34252 9.87376C1.29419 10.0172 1.26938 10.171 1.26953 10.3263C1.26953 10.6423 1.37011 10.9394 1.55114 11.1622L2.80892 12.7103C3.09763 13.0671 3.49638 13.2695 3.90578 13.2695C3.99215 13.2695 4.07498 13.2608 4.15662 13.2433C5.75162 12.92 7.33361 11.8758 8.61032 10.3059C9.88585 8.73749 10.733 6.79186 10.9993 4.82293C11.0797 4.22147 10.9176 3.60254 10.565 3.16565Z" fill="white"/>
</g>
<defs>
<clipPath id="clip0_57_130">
<rect width="13" height="13" fill="white"/>
</clipPath>
</defs>
</svg>
