<svg width="17" height="16" viewBox="0 0 17 16" fill="none" xmlns="http://www.w3.org/2000/svg">
<path fill-rule="evenodd" clip-rule="evenodd" d="M5.45293 0.108622C6.27048 0.0709857 6.53114 0.0626221 8.61369 0.0626221C10.6962 0.0626221 10.9569 0.0716827 11.7737 0.108622C12.5906 0.145561 13.1482 0.275895 13.6361 0.464774C14.1469 0.657834 14.6104 0.959622 14.9937 1.34993C15.3841 1.73256 15.6851 2.19535 15.8775 2.70693C16.0671 3.1948 16.1967 3.75238 16.2344 4.56783C16.272 5.38677 16.2804 5.64744 16.2804 7.72929C16.2804 9.81183 16.2713 10.0725 16.2344 10.89C16.1974 11.7055 16.0671 12.2631 15.8775 12.751C15.6851 13.2626 15.3835 13.7262 14.9937 14.1093C14.6104 14.4997 14.1469 14.8007 13.6361 14.9931C13.1482 15.1827 12.5906 15.3123 11.7751 15.35C10.9569 15.3876 10.6962 15.396 8.61369 15.396C6.53114 15.396 6.27048 15.3869 5.45293 15.35C4.63748 15.313 4.0799 15.1827 3.59202 14.9931C3.08039 14.8007 2.61684 14.4991 2.23363 14.1093C1.84359 13.7265 1.54176 13.2631 1.34917 12.7517C1.16029 12.2638 1.03066 11.7062 0.993021 10.8907C0.955385 10.0718 0.947021 9.81114 0.947021 7.72929C0.947021 5.64674 0.956082 5.38608 0.993021 4.56923C1.02996 3.75238 1.16029 3.1948 1.34917 2.70693C1.54204 2.19541 1.8441 1.73208 2.23432 1.34923C2.61699 0.959274 3.08008 0.657446 3.59132 0.464774C4.0792 0.275895 4.63678 0.146258 5.45223 0.108622H5.45293ZM11.7117 1.48862C10.9032 1.45168 10.6607 1.44402 8.61369 1.44402C6.56669 1.44402 6.32414 1.45168 5.51566 1.48862C4.76781 1.52277 4.36217 1.64753 4.09175 1.75277C3.7342 1.89217 3.47842 2.05735 3.21008 2.32568C2.95572 2.57314 2.75997 2.87439 2.63717 3.20735C2.53193 3.47777 2.40717 3.88341 2.37302 4.63126C2.33608 5.43974 2.32842 5.68229 2.32842 7.72929C2.32842 9.77629 2.33608 10.0188 2.37302 10.8273C2.40717 11.5752 2.53193 11.9808 2.63717 12.2512C2.75984 12.5837 2.95569 12.8855 3.21008 13.1329C3.45751 13.3873 3.75929 13.5831 4.09175 13.7058C4.36217 13.811 4.76781 13.9358 5.51566 13.97C6.32414 14.0069 6.56599 14.0146 8.61369 14.0146C10.6614 14.0146 10.9032 14.0069 11.7117 13.97C12.4596 13.9358 12.8652 13.811 13.1356 13.7058C13.4932 13.5664 13.749 13.4012 14.0173 13.1329C14.2717 12.8855 14.4675 12.5837 14.5902 12.2512C14.6954 11.9808 14.8202 11.5752 14.8544 10.8273C14.8913 10.0188 14.899 9.77629 14.899 7.72929C14.899 5.68229 14.8913 5.43974 14.8544 4.63126C14.8202 3.88341 14.6954 3.47777 14.5902 3.20735C14.4508 2.8498 14.2856 2.59402 14.0173 2.32568C13.7698 2.07134 13.4686 1.87559 13.1356 1.75277C12.8652 1.64753 12.4596 1.52277 11.7117 1.48862ZM7.63445 10.0927C8.18133 10.3204 8.79029 10.3511 9.35731 10.1796C9.92432 10.0082 10.4142 9.6452 10.7434 9.15267C11.0725 8.66014 11.2204 8.06862 11.1618 7.47915C11.1033 6.88968 10.8419 6.33882 10.4223 5.92065C10.1549 5.65335 9.83144 5.44867 9.47537 5.32136C9.11931 5.19405 8.73944 5.14727 8.36312 5.18438C7.98681 5.2215 7.6234 5.34159 7.29907 5.53602C6.97473 5.73044 6.69754 5.99435 6.48744 6.30876C6.27735 6.62317 6.13958 6.98025 6.08405 7.35429C6.02852 7.72834 6.05661 8.11004 6.16631 8.47192C6.276 8.8338 6.46457 9.16687 6.71843 9.44712C6.9723 9.72738 7.28514 9.94787 7.63445 10.0927ZM5.8272 4.9428C6.19313 4.57688 6.62755 4.28661 7.10565 4.08857C7.58376 3.89053 8.09619 3.7886 8.61369 3.7886C9.13119 3.7886 9.64362 3.89053 10.1217 4.08857C10.5998 4.28661 11.0342 4.57688 11.4002 4.9428C11.7661 5.30873 12.0564 5.74315 12.2544 6.22125C12.4524 6.69936 12.5544 7.21179 12.5544 7.72929C12.5544 8.24679 12.4524 8.75922 12.2544 9.23732C12.0564 9.71543 11.7661 10.1498 11.4002 10.5158C10.6612 11.2548 9.65882 11.67 8.61369 11.67C7.56855 11.67 6.56623 11.2548 5.8272 10.5158C5.08818 9.77675 4.673 8.77442 4.673 7.72929C4.673 6.68415 5.08818 5.68183 5.8272 4.9428ZM13.4284 4.37547C13.519 4.28993 13.5916 4.18707 13.6418 4.07297C13.6921 3.95887 13.7189 3.83585 13.7207 3.71121C13.7225 3.58656 13.6993 3.46282 13.6524 3.34731C13.6056 3.23179 13.536 3.12686 13.4478 3.03871C13.3597 2.95056 13.2548 2.881 13.1392 2.83413C13.0237 2.78727 12.9 2.76406 12.7753 2.76588C12.6507 2.76769 12.5277 2.7945 12.4136 2.84471C12.2995 2.89492 12.1966 2.96752 12.1111 3.0582C11.9447 3.23455 11.8536 3.4688 11.8572 3.71121C11.8607 3.95362 11.9586 4.18511 12.13 4.35654C12.3014 4.52797 12.5329 4.62584 12.7753 4.62938C13.0178 4.63291 13.252 4.54183 13.4284 4.37547Z" fill="#8E1719"/>
</svg>
