<svg width="15" height="14" viewBox="0 0 15 14" fill="none" xmlns="http://www.w3.org/2000/svg">
<path fill-rule="evenodd" clip-rule="evenodd" d="M5.1297 0.598322C5.78805 0.568014 5.99796 0.561279 7.67497 0.561279C9.35199 0.561279 9.56189 0.568576 10.2197 0.598322C10.8775 0.628068 11.3265 0.733022 11.7193 0.885121C12.1307 1.04059 12.504 1.28361 12.8127 1.59791C13.127 1.90603 13.3694 2.2787 13.5243 2.69066C13.677 3.08354 13.7814 3.53254 13.8117 4.1892C13.842 4.84867 13.8487 5.05858 13.8487 6.73503C13.8487 8.41204 13.8414 8.62195 13.8117 9.2803C13.7819 9.93696 13.677 10.386 13.5243 10.7788C13.3694 11.1908 13.1265 11.5641 12.8127 11.8727C12.504 12.187 12.1307 12.4295 11.7193 12.5844C11.3265 12.737 10.8775 12.8414 10.2208 12.8717C9.56189 12.902 9.35199 12.9088 7.67497 12.9088C5.99796 12.9088 5.78805 12.9015 5.1297 12.8717C4.47304 12.842 4.02404 12.737 3.63116 12.5844C3.21916 12.4295 2.84587 12.1866 2.53729 11.8727C2.2232 11.5644 1.98014 11.1913 1.82506 10.7794C1.67296 10.3865 1.56857 9.93752 1.53826 9.28086C1.50796 8.62139 1.50122 8.41148 1.50122 6.73503C1.50122 5.05801 1.50852 4.84811 1.53826 4.19032C1.56801 3.53254 1.67296 3.08354 1.82506 2.69066C1.98037 2.27875 2.22362 1.90565 2.53785 1.59735C2.846 1.28333 3.21891 1.04027 3.6306 0.885121C4.02348 0.733022 4.47248 0.628629 5.12914 0.598322H5.1297ZM10.1697 1.7096C9.51868 1.67985 9.32336 1.67368 7.67497 1.67368C6.02658 1.67368 5.83126 1.67985 5.18021 1.7096C4.57799 1.7371 4.25135 1.83756 4.03358 1.92231C3.74566 2.03456 3.53968 2.16758 3.3236 2.38366C3.11877 2.58293 2.96113 2.82552 2.86225 3.09364C2.7775 3.3114 2.67704 3.63805 2.64954 4.24027C2.61979 4.89132 2.61362 5.08664 2.61362 6.73503C2.61362 8.38342 2.61979 8.57874 2.64954 9.22978C2.67704 9.83201 2.7775 10.1587 2.86225 10.3764C2.96103 10.6441 3.11874 10.8872 3.3236 11.0864C3.52284 11.2913 3.76586 11.449 4.03358 11.5477C4.25135 11.6325 4.57799 11.733 5.18021 11.7605C5.83126 11.7902 6.02602 11.7964 7.67497 11.7964C9.32392 11.7964 9.51868 11.7902 10.1697 11.7605C10.7719 11.733 11.0986 11.6325 11.3164 11.5477C11.6043 11.4355 11.8103 11.3025 12.0263 11.0864C12.2312 10.8872 12.3889 10.6441 12.4877 10.3764C12.5724 10.1587 12.6729 9.83201 12.7004 9.22978C12.7301 8.57874 12.7363 8.38342 12.7363 6.73503C12.7363 5.08664 12.7301 4.89132 12.7004 4.24027C12.6729 3.63805 12.5724 3.3114 12.4877 3.09364C12.3754 2.80572 12.2424 2.59974 12.0263 2.38366C11.8271 2.17884 11.5845 2.02121 11.3164 1.92231C11.0986 1.83756 10.7719 1.7371 10.1697 1.7096ZM6.88641 8.63823C7.3268 8.82155 7.81718 8.84629 8.27378 8.70823C8.73039 8.57016 9.1249 8.27786 9.38993 7.88124C9.65496 7.48462 9.77408 7.00829 9.72693 6.5336C9.67978 6.05891 9.46929 5.61532 9.13141 5.27858C8.91603 5.06333 8.65559 4.89851 8.36886 4.79599C8.08213 4.69347 7.77624 4.6558 7.4732 4.68569C7.17016 4.71558 6.87752 4.81229 6.61634 4.96885C6.35517 5.12541 6.13195 5.33793 5.96277 5.59112C5.79358 5.8443 5.68264 6.13185 5.63792 6.43305C5.59321 6.73426 5.61583 7.04164 5.70416 7.33305C5.7925 7.62446 5.94435 7.89267 6.14878 8.11835C6.3532 8.34404 6.60513 8.52159 6.88641 8.63823ZM5.43109 4.49115C5.72576 4.19648 6.07559 3.96274 6.46059 3.80326C6.8456 3.64379 7.25824 3.56171 7.67497 3.56171C8.0917 3.56171 8.50434 3.64379 8.88935 3.80326C9.27435 3.96274 9.62418 4.19648 9.91885 4.49115C10.2135 4.78582 10.4473 5.13565 10.6067 5.52065C10.7662 5.90566 10.8483 6.3183 10.8483 6.73503C10.8483 7.15176 10.7662 7.5644 10.6067 7.94941C10.4473 8.33441 10.2135 8.68424 9.91885 8.97891C9.32373 9.57402 8.51659 9.90835 7.67497 9.90835C6.83335 9.90835 6.02621 9.57402 5.43109 8.97891C4.83598 8.38379 4.50165 7.57665 4.50165 6.73503C4.50165 5.89341 4.83598 5.08626 5.43109 4.49115ZM11.5521 4.03429C11.6251 3.96541 11.6836 3.88258 11.724 3.7907C11.7644 3.69882 11.786 3.59976 11.7875 3.49938C11.7889 3.39901 11.7703 3.29936 11.7325 3.20634C11.6948 3.11332 11.6388 3.02882 11.5678 2.95784C11.4968 2.88686 11.4123 2.83084 11.3193 2.7931C11.2263 2.75536 11.1266 2.73667 11.0262 2.73813C10.9259 2.7396 10.8268 2.76118 10.7349 2.80162C10.643 2.84205 10.5602 2.90051 10.4913 2.97353C10.3574 3.11554 10.284 3.30418 10.2869 3.49938C10.2897 3.69459 10.3685 3.881 10.5066 4.01905C10.6446 4.1571 10.831 4.23591 11.0262 4.23876C11.2214 4.2416 11.4101 4.16826 11.5521 4.03429Z" fill="white"/>
</svg>
