<svg width="13" height="13" viewBox="0 0 13 13" fill="none" xmlns="http://www.w3.org/2000/svg">
<path d="M11.4141 4.66275V9.073C11.4142 9.52266 11.2572 9.95528 10.9754 10.2821C10.6937 10.609 10.3085 10.8052 9.89886 10.8307L9.80793 10.8334H3.13599C2.72572 10.8334 2.331 10.6614 2.03278 10.3526C1.73457 10.0438 1.55548 9.6216 1.53226 9.17267L1.52979 9.073V4.66275L6.29997 7.40141C6.35304 7.43188 6.41205 7.44779 6.47196 7.44779C6.53187 7.44779 6.59088 7.43188 6.64395 7.40141L11.4141 4.66275ZM3.13599 2.16675H9.80793C10.2061 2.1667 10.59 2.3287 10.8853 2.62135C11.1807 2.914 11.3663 3.31643 11.4062 3.75058L6.47196 6.5835L1.53769 3.75058C1.57601 3.33367 1.74875 2.9454 2.02487 2.65558C2.30099 2.36576 2.66237 2.19339 3.04407 2.16946L3.13599 2.16675H9.80793H3.13599Z" fill="white"/>
</svg>
