<svg width="30" height="98" viewBox="0 0 30 98" fill="none" xmlns="http://www.w3.org/2000/svg">
<path fill-rule="evenodd" clip-rule="evenodd" d="M6.92931 0.252603C1.24079 1.17017 1.10259 1.41921 0.332431 12.1083C-0.335169 21.3798 0.0306196 30.1517 1.17975 32.4279C1.59926 33.2586 3.54785 35.8359 5.50914 38.1549C9.54795 42.9299 10.9061 45.2724 11.5048 48.4962C11.7695 49.9212 11.5224 58.4902 10.8255 72.0548C9.61681 95.5771 9.62999 95.778 12.5006 97.2713C14.3691 98.2429 15.6408 98.2429 17.5093 97.2713C20.3687 95.7839 20.3814 95.5928 19.161 71.7611C17.7809 44.8048 17.4996 46.5402 24.6244 38.0748C26.5749 35.7573 28.4923 33.0871 28.8854 32.1411C29.9901 29.4822 30.3105 21.5095 29.6805 12.3657C29.026 2.86974 28.6051 1.58819 25.8702 0.774262C23.57 0.0900146 10.2165 -0.277897 6.92931 0.252603ZM16.453 5.17054C16.7568 5.74181 16.9585 10.3611 16.9585 16.7463C16.9585 27.7134 16.7152 29.272 15.005 29.272C13.2947 29.272 13.0515 27.7134 13.0515 16.7463C13.0515 5.77914 13.2947 4.22055 15.005 4.22055C15.5231 4.22055 16.1746 4.6479 16.453 5.17054ZM8.90037 16.0026C8.90037 26.2442 8.8364 27.0606 8.02229 27.2182C5.90667 27.6279 5.72597 26.7629 5.72597 16.2349C5.72597 10.7521 5.86369 5.90391 6.03267 5.46231C6.23241 4.93869 6.78524 4.71077 7.61987 4.80803L8.90037 4.95736V16.0026ZM23.7458 5.38814C24.135 5.8597 24.264 9.15617 24.1721 16.2644C24.0584 25.0226 23.9285 26.535 23.2516 26.9638C22.8179 27.2389 22.1039 27.3248 21.6644 27.1554C20.9582 26.8827 20.8654 25.5968 20.8654 16.1067C20.8654 10.1995 21.0119 5.21917 21.1911 5.03939C21.7435 4.48334 23.1588 4.67688 23.7458 5.38814Z" fill="#D9AB8A"/>
</svg>
