<svg width="20" height="14" viewBox="0 0 20 14" fill="none" xmlns="http://www.w3.org/2000/svg">
<rect x="0.817871" width="18.5343" height="14" rx="2" fill="#955C25"/>
<path d="M13.8264 5.81703L11.4281 5.45204L10.3561 3.17607C10.3268 3.11375 10.2786 3.06331 10.2191 3.03264C10.0699 2.95549 9.88851 3.01979 9.81389 3.17607L8.74181 5.45204L6.34357 5.81703C6.27745 5.82692 6.217 5.85956 6.17071 5.90902C6.11476 5.96924 6.08392 6.05026 6.08499 6.13428C6.08605 6.2183 6.11892 6.29844 6.17638 6.35709L7.91154 8.12861L7.5016 10.6301C7.49199 10.6883 7.49814 10.7481 7.51935 10.8029C7.54057 10.8576 7.576 10.905 7.62163 10.9397C7.66725 10.9744 7.72126 10.995 7.77751 10.9992C7.83376 11.0034 7.89001 10.991 7.93988 10.9634L10.085 9.78242L12.2301 10.9634C12.2886 10.9961 12.3567 11.007 12.4218 10.9951C12.5862 10.9654 12.6967 10.8022 12.6684 10.6301L12.2584 8.12861L13.9936 6.35709C14.0408 6.30862 14.072 6.24532 14.0814 6.17608C14.1069 6.00298 13.9917 5.84275 13.8264 5.81703Z" fill="white"/>
</svg>
