<svg width="14" height="14" viewBox="0 0 14 14" fill="none" xmlns="http://www.w3.org/2000/svg">
<g clip-path="url(#clip0_57_137)">
<path d="M13.7396 2.77092C13.2709 2.97858 12.7675 3.1189 12.2382 3.18232C12.7843 2.85555 13.1929 2.34126 13.3877 1.73541C12.8746 2.04017 12.3131 2.25468 11.7275 2.36963C11.3337 1.94917 10.8121 1.67049 10.2437 1.57685C9.67535 1.4832 9.09194 1.57983 8.58408 1.85173C8.07623 2.12364 7.67235 2.5556 7.43516 3.08056C7.19796 3.60552 7.14071 4.19411 7.27231 4.75494C6.2327 4.70274 5.21568 4.43253 4.28726 3.96184C3.35884 3.49115 2.53976 2.8305 1.88319 2.02277C1.65869 2.41004 1.5296 2.85904 1.5296 3.33722C1.52935 3.7677 1.63536 4.19158 1.83822 4.57126C2.04108 4.95094 2.33452 5.27468 2.69251 5.51375C2.27734 5.50054 1.87133 5.38836 1.50827 5.18654V5.22021C1.50823 5.82397 1.71707 6.40915 2.09937 6.87646C2.48167 7.34377 3.01386 7.66442 3.60566 7.78401C3.22052 7.88824 2.81673 7.90359 2.42479 7.82891C2.59176 8.34841 2.91701 8.80269 3.35499 9.12816C3.79297 9.45363 4.32177 9.63399 4.86735 9.64399C3.9412 10.371 2.7974 10.7654 1.61996 10.7637C1.41139 10.7637 1.20299 10.7516 0.99585 10.7272C2.19102 11.4956 3.58228 11.9035 5.00317 11.9019C9.81309 11.9019 12.4425 7.91814 12.4425 4.46309C12.4425 4.35084 12.4397 4.23747 12.4347 4.12522C12.9461 3.75534 13.3876 3.29731 13.7385 2.7726L13.7396 2.77092Z" fill="white"/>
</g>
<defs>
<clipPath id="clip0_57_137">
<rect width="13.47" height="13.47" fill="white" transform="translate(0.469971)"/>
</clipPath>
</defs>
</svg>
