<svg width="17" height="14" viewBox="0 0 17 14" fill="none" xmlns="http://www.w3.org/2000/svg">
<path d="M16.0608 1.85601C15.4828 2.11214 14.8619 2.2852 14.2091 2.36342C14.8826 1.96039 15.3865 1.32607 15.6268 0.578822C14.994 0.954703 14.3014 1.21928 13.5791 1.36106C13.0935 0.842473 12.4501 0.498748 11.7491 0.383246C11.048 0.267744 10.3284 0.386927 9.70206 0.722292C9.07568 1.05766 8.57754 1.59044 8.28498 2.23792C7.99242 2.88541 7.92182 3.61136 8.08412 4.30309C6.80187 4.23871 5.54749 3.90543 4.40238 3.32488C3.25727 2.74434 2.24702 1.9295 1.43721 0.933251C1.16031 1.4109 1.0011 1.96469 1.0011 2.55448C1.00079 3.08543 1.13154 3.60824 1.38175 4.07654C1.63195 4.54483 1.99388 4.94413 2.43542 5.239C1.92335 5.22271 1.42258 5.08434 0.974791 4.83542V4.87696C0.974739 5.62163 1.23233 6.34339 1.70385 6.91976C2.17537 7.49614 2.83178 7.89162 3.5617 8.03912C3.08667 8.16768 2.58864 8.18662 2.10522 8.0945C2.31116 8.73525 2.71232 9.29556 3.25252 9.69699C3.79273 10.0984 4.44495 10.3209 5.11786 10.3332C3.97555 11.23 2.56479 11.7164 1.11255 11.7142C0.855297 11.7143 0.598264 11.6993 0.342773 11.6692C1.81689 12.617 3.53286 13.1201 5.28539 13.1181C11.2179 13.1181 14.4611 8.20457 14.4611 3.94312C14.4611 3.80467 14.4576 3.66484 14.4514 3.52639C15.0822 3.07019 15.6267 2.50526 16.0594 1.85809L16.0608 1.85601Z" fill="#8E1719"/>
</svg>
