<svg width="13" height="14" viewBox="0 0 13 14" fill="none" xmlns="http://www.w3.org/2000/svg">
<g clip-path="url(#clip0_57_133)">
<path d="M10.4309 2.55455C9.32853 1.44959 7.86051 0.841858 6.30041 0.841858C3.08023 0.841858 0.459898 3.46219 0.459898 6.68237C0.459898 7.71103 0.728246 8.71602 1.23863 9.60262L0.409912 12.6281L3.50643 11.8152C4.35883 12.2808 5.3191 12.5255 6.29778 12.5255H6.30041C9.51795 12.5255 12.1962 9.90517 12.1962 6.685C12.1962 5.1249 11.5332 3.65951 10.4309 2.55455ZM6.30041 11.5416C5.42696 11.5416 4.57193 11.3074 3.8274 10.8654L3.65113 10.7602L1.81479 11.2416L2.30413 9.45003L2.18837 9.26587C1.70166 8.4924 1.44647 7.60054 1.44647 6.68237C1.44647 4.00678 3.62482 1.82843 6.30304 1.82843C7.60005 1.82843 8.81814 2.33356 9.73368 3.25173C10.6492 4.1699 11.2122 5.38798 11.2096 6.685C11.2096 9.36321 8.97599 11.5416 6.30041 11.5416ZM8.96284 7.90572C8.81814 7.83205 8.09991 7.47952 7.96574 7.43216C7.83157 7.38217 7.73423 7.3585 7.63688 7.50582C7.53954 7.65315 7.26067 7.97938 7.17385 8.07935C7.08966 8.17669 7.00285 8.18985 6.85815 8.11618C6.00049 7.68735 5.43748 7.3506 4.87185 6.37982C4.72189 6.12199 5.02181 6.14041 5.30068 5.58267C5.34803 5.48532 5.32436 5.40114 5.28753 5.32747C5.25069 5.25381 4.95867 4.53558 4.83765 4.24356C4.71926 3.95943 4.59824 3.99889 4.50879 3.99363C4.4246 3.98837 4.32726 3.98837 4.22992 3.98837C4.13258 3.98837 3.97473 4.0252 3.84055 4.1699C3.70638 4.31722 3.33017 4.66976 3.33017 5.38798C3.33017 6.10621 3.85371 6.80076 3.92474 6.8981C3.9984 6.99544 4.95341 8.46872 6.4188 9.10276C7.34486 9.50265 7.70792 9.53685 8.17095 9.46845C8.45245 9.42635 9.03387 9.11591 9.15489 8.7739C9.27591 8.43189 9.27591 8.13986 9.23908 8.07935C9.20487 8.01358 9.10753 7.97675 8.96284 7.90572Z" fill="white"/>
</g>
<defs>
<clipPath id="clip0_57_133">
<rect width="11.7863" height="13.47" fill="white" transform="translate(0.409912)"/>
</clipPath>
</defs>
</svg>
