<svg width="16" height="16" viewBox="0 0 16 16" fill="none" xmlns="http://www.w3.org/2000/svg">
<path d="M13.6267 2.29075C12.2218 0.853247 10.351 0.0626221 8.36281 0.0626221C4.25902 0.0626221 0.91966 3.47155 0.91966 7.66084C0.91966 8.99908 1.26164 10.3065 1.91208 11.4599L0.855957 15.396L4.80217 14.3384C5.88846 14.9442 7.11223 15.2625 8.35946 15.2625H8.36281C12.4632 15.2625 15.8764 11.8535 15.8764 7.66426C15.8764 5.63465 15.0315 3.72825 13.6267 2.29075ZM8.36281 13.9824C7.24969 13.9824 6.16004 13.6778 5.21121 13.1028L4.98657 12.9659L2.64634 13.5922L3.26995 11.2614L3.12243 11.0218C2.50217 10.0156 2.17695 8.85533 2.17695 7.66084C2.17695 4.18003 4.95304 1.3461 8.36616 1.3461C10.0191 1.3461 11.5714 2.00325 12.7382 3.19774C13.9049 4.39224 14.6224 5.97691 14.6191 7.66426C14.6191 11.1485 11.7726 13.9824 8.36281 13.9824ZM11.7558 9.25235C11.5714 9.15652 10.6561 8.69789 10.4851 8.63628C10.3141 8.57125 10.1901 8.54045 10.066 8.73212C9.94196 8.92378 9.58657 9.34819 9.47593 9.47825C9.36864 9.60488 9.258 9.622 9.0736 9.52616C7.98059 8.96828 7.2631 8.53018 6.54225 7.26724C6.35115 6.93182 6.73336 6.95578 7.08876 6.23018C7.14911 6.10354 7.11893 5.99402 7.07199 5.89819C7.02505 5.80235 6.6529 4.86798 6.49867 4.48807C6.34779 4.11843 6.19357 4.16976 6.07957 4.16292C5.97228 4.15607 5.84823 4.15607 5.72418 4.15607C5.60013 4.15607 5.39896 4.20399 5.22797 4.39224C5.05698 4.5839 4.57753 5.04253 4.57753 5.97691C4.57753 6.91128 5.24473 7.81485 5.33526 7.94149C5.42914 8.06813 6.64619 9.98479 8.51368 10.8096C9.69386 11.3299 10.1565 11.3744 10.7466 11.2854C11.1054 11.2306 11.8463 10.8268 12.0006 10.3818C12.1548 9.93688 12.1548 9.55697 12.1079 9.47825C12.0643 9.39268 11.9402 9.34476 11.7558 9.25235Z" fill="#8E1719"/>
</svg>
